# xmcd
#
# Track frame offsets:
#	150
#	16423
#	27668
#	40685
#	59460
#	75995
#	91035
#	114692
#	130620
#	140545
#	157572
#	169935
#	189393
#	206840
#	224928
#
# Disc length: 3137 seconds
#
# Revision: 2
# Processed by: cddbd v1.5.2PL0 Copyright (c) Steve Scherf et al.
# Submitted via: audiograbber 1.83.01
#
DISCID=ca0c3f0f
DTITLE=Albie Donnelly - Don't Worry 'bout a Thing
DYEAR=1995
DGENRE=
TTITLE0=Don't Worry 'bout a Thing
TTITLE1=When the Lights Go Out
TTITLE2=Night and Day
TTITLE3=Fatman Blues
TTITLE4=Go to Work
TTITLE5=Teach Me Tonight
TTITLE6=Heartquake
TTITLE7=Save Your Love for Me
TTITLE8=Harlem Nocturne
TTITLE9=The Night Time Is the Right Time
TTITLE10=Sunday Kind of Love
TTITLE11=I Stepped in Quicksand
TTITLE12=Early in the Morning
TTITLE13=Eat That Chicken
TTITLE14=Gee Baby Ain't I Good for You
EXTD=
EXTT0=
EXTT1=
EXTT2=
EXTT3=
EXTT4=
EXTT5=
EXTT6=
EXTT7=
EXTT8=
EXTT9=
EXTT10=
EXTT11=
EXTT12=
EXTT13=
EXTT14=
PLAYORDER=
